<svg id="dodoLogo" viewBox="0 0 130 47" xmlns="http://www.w3.org/2000/svg" xmlns:xlink="http://www.w3.org/1999/xlink">
      <defs></defs>
      <g id="Symbols" stroke="none" stroke-width="1" fill="none" fill-rule="evenodd">
        <g class="fill-group" id="logo-group" fill="#470A68">
          <g id="Group">
            <path id="Fill-6" d="M41.1022742,31.277629 C41.1022742,27.3060161 44.3219516,24.0848871 48.2950161,24.0848871 C52.266629,24.0848871 55.4877581,27.3060161 55.4877581,31.277629 C55.4877581,35.2506935 52.266629,38.470371 48.2950161,38.470371 C44.3219516,38.470371 41.1022742,35.2506935 41.1022742,31.277629 Z M32.8817903,31.277629 C32.8817903,39.7898871 39.7827581,46.6908548 48.2950161,46.6908548 C56.8072742,46.6908548 63.7082419,39.7898871 63.7082419,31.277629 C63.7082419,22.765371 56.8072742,15.8644032 48.2950161,15.8644032 C39.7827581,15.8644032 32.8817903,22.765371 32.8817903,31.277629 Z"></path>
            <path id="Fill-8" d="M106.86571,31.277629 C106.86571,27.3060161 110.085387,24.0848871 114.058452,24.0848871 C118.030065,24.0848871 121.251194,27.3060161 121.251194,31.277629 C121.251194,35.2506935 118.030065,38.470371 114.058452,38.470371 C110.085387,38.470371 106.86571,35.2506935 106.86571,31.277629 Z M98.6452258,31.277629 C98.6452258,39.7898871 105.546194,46.6908548 114.058452,46.6908548 C122.57071,46.6908548 129.471677,39.7898871 129.471677,31.277629 C129.471677,22.765371 122.57071,15.8644032 114.058452,15.8644032 C105.546194,15.8644032 98.6452258,22.765371 98.6452258,31.277629 Z"></path>
            <path id="Fill-10" d="M8.22048387,31.277629 C8.22048387,27.3060161 11.4401613,24.0848871 15.4132258,24.0848871 C19.3848387,24.0848871 22.6059677,27.3060161 22.6059677,31.277629 C22.6059677,35.2506935 19.3848387,38.470371 15.4132258,38.470371 C11.4401613,38.470371 8.22048387,35.2506935 8.22048387,31.277629 Z M22.6059677,17.6455323 C20.4590323,16.510371 18.0116129,15.8644032 15.4132258,15.8644032 C6.90096774,15.8644032 0,22.765371 0,31.277629 C0,39.7898871 6.90096774,46.6908548 15.4132258,46.6908548 C23.9254839,46.6908548 30.8264516,39.7898871 30.8264516,31.277629 L30.8264516,0.451177419 C26.2858065,0.451177419 22.6059677,4.13101613 22.6059677,8.67166129 L22.6059677,17.6455323 Z"></path>
            <path id="Fill-13" d="M73.9839194,31.277629 C73.9839194,27.3060161 77.2035968,24.0848871 81.1766613,24.0848871 C85.1482742,24.0848871 88.3694032,27.3060161 88.3694032,31.277629 C88.3694032,35.2506935 85.1482742,38.470371 81.1766613,38.470371 C77.2035968,38.470371 73.9839194,35.2506935 73.9839194,31.277629 Z M88.3694032,17.6455323 C86.2224677,16.510371 83.7750484,15.8644032 81.1766613,15.8644032 C72.6644032,15.8644032 65.7634355,22.765371 65.7634355,31.277629 C65.7634355,39.7898871 72.6644032,46.6908548 81.1766613,46.6908548 C89.6889194,46.6908548 96.5898871,39.7898871 96.5898871,31.277629 L96.5898871,0.451177419 C92.0492419,0.451177419 88.3694032,4.13101613 88.3694032,8.67166129 L88.3694032,17.6455323 Z"></path>
          </g>
        </g>
      </g>
    </svg>