<svg width="142" height="32" viewBox="0 0 142 32" fill="none" xmlns="http://www.w3.org/2000/svg">
<g id="Logo wrap">
<g id="Group 2">
<path id="Vector" d="M9.1707 11.8086H4.13672V26.9735H9.1707V11.8086Z" fill="#22296C"/>
<path id="Vector_2" d="M20.247 6.53516C22.3865 6.53516 24.1861 7.22733 25.646 8.62426C27.1058 10.0212 27.8358 11.7957 27.8358 13.9603C27.8358 16.1249 27.1058 17.8994 25.646 19.2963C24.1861 20.6932 22.3865 21.3854 20.247 21.3854H17.428V26.9731H12.0039V6.53516H20.247ZM20.247 16.2382C20.8511 16.2382 21.3671 16.0242 21.7824 15.5963C22.1977 15.1684 22.3991 14.6273 22.3991 13.9603C22.3991 13.2933 22.1977 12.7521 21.7824 12.3368C21.3671 11.9215 20.8637 11.7202 20.247 11.7202H17.428V16.2382H20.247Z" fill="#22296C"/>
<path id="Vector_3" d="M34.6308 14.917C34.9076 13.9228 35.4865 13.1551 36.3297 12.6139C37.1855 12.0728 38.1294 11.7959 39.1865 11.7959V17.371C38.0287 17.1948 36.9842 17.3962 36.0529 18.0129C35.109 18.6169 34.6434 19.6112 34.6434 20.9829V26.9733H29.6094V11.8085H34.6434V14.917H34.6308Z" fill="#22296C"/>
<path id="Vector_4" d="M46.4246 11.8086H41.3906V26.9735H46.4246V11.8086Z" fill="#22296C"/>
<path id="Vector_5" d="M66.4471 11.3804C68.209 11.3804 69.5933 11.9467 70.6127 13.0668C71.6321 14.1868 72.1481 15.7348 72.1481 17.698V26.9731H67.0889V18.2643C67.0889 16.8548 66.4597 16.1375 65.2138 16.1375C64.5216 16.1375 64.0056 16.364 63.6532 16.8171C63.3009 17.2701 63.1247 17.8994 63.1247 18.6796V26.9731H58.0907V18.2643C58.0907 16.8548 57.4488 16.1375 56.1778 16.1375C55.4856 16.1375 54.9696 16.364 54.6172 16.8171C54.2649 17.2701 54.0887 17.8994 54.0887 18.6796V26.9731H49.0547V11.8083H54.0887V13.2304C55.02 11.997 56.3791 11.3804 58.1788 11.3804C59.9155 11.3804 61.2117 12.0222 62.0675 13.3185C63.0995 12.0348 64.5719 11.3804 66.4471 11.3804Z" fill="#22296C"/>
<path id="Vector_6" d="M84.2052 11.8086H89.2391V26.9735H84.2052V25.4633C83.299 26.7595 81.8895 27.4013 79.9892 27.4013C78.3531 27.4013 77.0066 26.835 75.9746 25.715C74.93 24.5949 74.4141 22.984 74.4141 20.8823V11.8086H79.448V20.2405C79.448 21.0334 79.6494 21.6249 80.0647 22.0276C80.48 22.4303 81.0337 22.6317 81.7133 22.6317C82.5062 22.6317 83.1103 22.3925 83.5507 21.9143C83.9786 21.4361 84.2052 20.7565 84.2052 19.863V11.8086Z" fill="#22296C"/>
<path id="Vector_7" d="M96.4857 16.1755C96.4857 16.4272 96.75 16.6537 97.2785 16.8173C97.8071 16.9935 98.4238 17.1823 99.1285 17.4088C99.8333 17.6353 100.563 17.8744 101.318 18.1135C102.073 18.3527 102.715 18.8435 103.231 19.5734C103.747 20.3033 103.999 21.2094 103.999 22.3169C103.999 24.0536 103.344 25.3373 102.048 26.1679C100.752 26.9985 99.204 27.4138 97.417 27.4138C94.019 27.4138 91.7537 26.2057 90.6211 23.8019L95.0132 21.587C95.3908 22.6945 96.1836 23.2608 97.3792 23.2608C98.2853 23.2608 98.7384 22.9965 98.7384 22.4553C98.7384 22.1785 98.4741 21.952 97.9581 21.7758C97.4421 21.5996 96.8381 21.3856 96.1333 21.1465C95.4411 20.9074 94.7112 20.6557 93.9687 20.404C93.2262 20.1523 92.5969 19.6867 92.0935 19.0071C91.5901 18.3275 91.3384 17.4969 91.3384 16.5027C91.3384 14.8792 91.9425 13.6333 93.1381 12.7398C94.3337 11.8462 95.7809 11.4058 97.4673 11.4058C100.463 11.4058 102.539 12.5762 103.722 14.9295L99.4809 16.8425C99.0404 15.9741 98.4112 15.5336 97.6057 15.5336C96.8506 15.5085 96.4857 15.735 96.4857 16.1755Z" fill="#22296C"/>
<path id="Vector_8" d="M9.31085 7.65543C9.31085 9.11528 8.12786 10.3109 6.65542 10.3109C5.19557 10.3109 4 9.12786 4 7.65543C4 6.19557 5.18299 5 6.65542 5C8.12786 5 9.31085 6.18299 9.31085 7.65543Z" fill="#22296C"/>
</g>
</g>
</svg>
