<svg version="1.2" baseProfile="tiny" xmlns="http://www.w3.org/2000/svg" viewBox="0 0 632.7 86" xml:space="preserve"><g id="Logo"><path fill="#1A2233" d="M444.3 0h-72.7v86h72.7c13.1 0 23.7-10.6 23.8-23.7V23.8c0-13.1-10.7-23.8-23.8-23.8zm-5.8 67.3h-44.4V18.7h44.4c3.9 0 7 3.1 7 7v34.6c0 3.9-3.1 7-7 7zM485.3 0h22.5v86h-22.5z"/><path fill="#009DEC" d="M25.9 0H0l13 22.4z"/><path fill="#1A2233" d="M92.1 0 59 57.2 31.7 10l-13 22.5 26.2 45.3C47.8 82.9 53.2 86 59 86c5.8 0 11.2-3.1 14.1-8.2l45-77.8h-26zm173.6 62.2c0 13.1 10.7 23.8 23.8 23.8h65V67.3h-59.9v-.1c-3.5-.4-6.3-3.4-6.3-7v-8h66.3V33.7h-66.3v-8c0-3.9 3.1-7 7-7h59.2V0h-65c-13.1 0-23.7 10.6-23.8 23.7v38.5zM226 85.9h22.5V16.2c0-9-7.3-16.3-16.3-16.3h-.1C226.3-.1 220.9 3 218 8l-31.4 54.4-31.4-54.3c-2.9-5-8.3-8.1-14.1-8.1h-.1c-9 0-16.3 7.3-16.3 16.3V86h22.5V34.2l25.2 43.6c2.9 5 8.3 8.1 14.1 8.1 5.8 0 11.2-3.1 14.1-8.1L226 34.2v51.7zM587.8 8.1c-2.9-5-8.3-8.1-14.1-8.1-5.8 0-11.2 3.1-14.1 8.1l-45 77.9h24.2l10.8-18.7h48.3L608.6 86h24.2l-45-77.9zm-14.1 17.3 15.4 26.8h-30.9"/></g></svg>